<svg width="223" height="41" viewBox="0 0 223 41" fill="none" xmlns="http://www.w3.org/2000/svg">
    <g clip-path="url(#clip0_315_70)">
        <path d="M41.2 36.4C35.3 36.4 32.3 40.8 22.2 40.8C9.9 40.8 0 33 0 20.4C0 7.8 9.9 0 22.2 0C32.3 0 35.3 4.4 41.2 4.4C47.1 4.4 50.1 0 60.3 0C72.6 0 82.5 7.8 82.5 20.4C82.5 33 72.6 40.8 60.3 40.8C50.1 40.8 47.1 36.4 41.2 36.4Z" fill="#8FC31F"/>
        <path d="M55.1 20.4C55.1 29.2 48.9 36.4 41.2 36.4C33.5 36.4 27.3 29.3 27.3 20.4C27.3 11.5 33.5 4.39999 41.2 4.39999C48.9 4.39999 55.1 11.6 55.1 20.4Z" fill="#6FA80C"/>
        <path d="M14.2 28.1H10.2V16.1H6.9V12.7H17.5V16.1H14.2V28.1Z" fill="white"/>
        <path d="M37.3 20.1C37.5 24.6 33.9 28.4 29.4 28.6C29.2 28.6 29 28.6 28.7 28.6C24.2 28.8 20.4 25.3 20.2 20.7C20.2 20.5 20.2 20.3 20.2 20C20.2 15.3 24.3 12.1 28.7 12.1C33.1 12.1 37.3 15.4 37.3 20.1Z" fill="white"/>
        <path d="M56.6 19.5C56.6 21.7 56.4 23.7 55 25.6C53.5 27.6 51.1 28.7 48.6 28.6C44.3 28.8 40.6 25.5 40.4 21.2C40.4 20.9 40.4 20.7 40.4 20.4C40.4 15.4 43.8 12.1 48.8 12.1C51.8 11.9 54.6 13.7 55.8 16.4L52 18.1C51.5 16.6 50.2 15.6 48.7 15.7C46.1 15.7 44.7 18.2 44.7 20.6C44.7 23 46.1 25.4 48.8 25.4C50.4 25.6 51.8 24.5 52 22.9V22.8H48.7V19.7H56.6V19.5V19.5Z" fill="white"/>
        <path d="M76.8 20.1C76.8 24.8 73 28.6 68.3 28.6C63.6 28.6 59.8 24.8 59.8 20.1C59.8 15.4 63.9 12.2 68.3 12.2C72.7 12.2 76.8 15.4 76.8 20.1Z" fill="white"/>
        <path d="M85.8 29.7L88.4 14.6H92.3L95.3 22.6L98.3 14.6H102.2L104.8 29.7H100.9L99.5 21L96 29.7H94.4L91 21L89.7 29.7H85.8Z" fill="#444444"/>
        <path d="M117.2 17.9H112.5V20.4H116.9V23.7H112.5V26.3H117.2V29.6H108.6V14.6H117.2V17.9Z" fill="#444444"/>
        <path d="M121.8 14.6H127.6C128.6 14.6 129.6 14.8 130.5 15.2C132.3 16 133.7 17.4 134.5 19.3C135.3 21.1 135.3 23.2 134.5 25C134.1 25.9 133.6 26.7 132.9 27.4C132.2 28.1 131.4 28.6 130.5 29C129.6 29.4 128.6 29.6 127.6 29.6H121.8V14.6ZM125.7 26.3H126.6C127.2 26.3 127.8 26.2 128.4 26C129.4 25.6 130.2 24.8 130.6 23.8C130.8 23.3 130.9 22.7 130.9 22.1C130.9 21.5 130.8 21 130.6 20.4C130.2 19.4 129.4 18.6 128.4 18.2C127.8 18 127.2 17.9 126.6 17.9H125.7V26.3Z" fill="#444444"/>
        <path d="M142.8 14.6V29.7H138.9V14.6H142.8Z" fill="#444444"/>
        <path d="M151.7 14.6V22.8V24.2C151.7 24.6 151.8 25.1 152 25.4C152.2 25.8 152.4 26.1 152.8 26.3C153.7 26.8 154.9 26.8 155.8 26.3C156.1 26.1 156.4 25.8 156.6 25.4C156.8 25 156.9 24.6 156.9 24.2C156.9 23.7 157 23.3 157 22.8V14.6H160.9V23.3C160.9 25.7 160.4 27.4 159.3 28.4C156.3 30.6 152.3 30.6 149.4 28.4C148.3 27.3 147.8 25.6 147.8 23.3V14.6H151.7Z" fill="#444444"/>
        <path d="M164 29.7L166.6 14.6H170.5L173.5 22.6L176.5 14.6H180.4L183 29.7H179L177.7 21L174.1 29.7H172.5L169.1 21L167.8 29.7H164V29.7Z" fill="#444444"/>
    </g>
    <rect x="189" y="14" width="34" height="18" rx="4" fill="#F39800"/>
    <path d="M196.574 23.2793H194.822L194.816 22.0371H196.305C196.539 22.0371 196.73 21.998 196.879 21.9199C197.031 21.8379 197.143 21.7188 197.213 21.5625C197.287 21.4023 197.324 21.207 197.324 20.9766C197.324 20.7188 197.289 20.5117 197.219 20.3555C197.152 20.1953 197.045 20.0781 196.896 20.0039C196.752 19.9297 196.561 19.8926 196.322 19.8926H195.408V27H193.691V18.4688H196.322C196.748 18.4688 197.129 18.5156 197.465 18.6094C197.801 18.7031 198.084 18.8457 198.314 19.0371C198.549 19.2285 198.729 19.4707 198.854 19.7637C198.979 20.0566 199.041 20.4023 199.041 20.8008C199.041 21.1523 198.971 21.4766 198.83 21.7734C198.689 22.0703 198.469 22.3145 198.168 22.5059C197.871 22.6934 197.482 22.7969 197.002 22.8164L196.574 23.2793ZM196.51 27H194.336L195.021 25.582H196.51C196.74 25.582 196.924 25.5332 197.061 25.4355C197.197 25.3379 197.297 25.207 197.359 25.043C197.426 24.875 197.459 24.6836 197.459 24.4688C197.459 24.2266 197.43 24.0156 197.371 23.8359C197.316 23.6562 197.225 23.5195 197.096 23.4258C196.967 23.3281 196.793 23.2793 196.574 23.2793H195.098L195.109 22.0371H196.902L197.307 22.5293C197.764 22.5137 198.129 22.6016 198.402 22.793C198.676 22.9805 198.871 23.2266 198.988 23.5312C199.109 23.832 199.17 24.1523 199.17 24.4922C199.17 25.0391 199.066 25.5 198.859 25.875C198.656 26.2461 198.357 26.5273 197.963 26.7188C197.568 26.9062 197.084 27 196.51 27ZM205.322 25.582V27H201.613V25.582H205.322ZM202.146 18.4688V27H200.43V18.4688H202.146ZM204.824 21.9258V23.3027H201.613V21.9258H204.824ZM205.311 18.4688V19.8926H201.613V18.4688H205.311ZM209.84 18.4688V27H208.135V18.4688H209.84ZM211.961 18.4688V19.8926H206.055V18.4688H211.961ZM215.342 19.9922L213.508 27H211.697L214.363 18.4688H215.494L215.342 19.9922ZM216.789 27L214.943 19.9922L214.773 18.4688H215.922L218.611 27H216.789ZM216.854 23.8184V25.2422H213.004V23.8184H216.854Z" fill="white"/>
    <defs>
        <clipPath id="clip0_315_70">
            <rect width="183" height="40.8" fill="white"/>
        </clipPath>
    </defs>
</svg>
