<?xml version="1.0" encoding="utf-8"?>
<svg version="1.1" id="Layer_2" xmlns="http://www.w3.org/2000/svg" xmlns:xlink="http://www.w3.org/1999/xlink" x="0px" y="0px"
	 viewBox="0 0 512 512" style="enable-background:new 0 0 512 512;" xml:space="preserve">
<path fill="currentColor" d="M95.4,196.7c-44.2,0-80.1-35.9-80.1-80.1s35.9-80.1,80.1-80.1s80.1,35.9,80.1,80.1S139.6,196.7,95.4,196.7z M95.4,66.5
	c-27.6,0-50.1,22.5-50.1,50.1s22.5,50.1,50.1,50.1s50.1-22.5,50.1-50.1S123,66.5,95.4,66.5z"/>
<path fill="currentColor" d="M198.9,300.2c-44.2,0-80.1-35.9-80.1-80.1c0-44.2,35.9-80.1,80.1-80.1c44.2,0,80.1,35.9,80.1,80.1
	C279,264.2,243,300.2,198.9,300.2z M198.9,169.9c-27.6,0-50.1,22.5-50.1,50.1c0,27.6,22.5,50.1,50.1,50.1
	c27.6,0,50.1-22.5,50.1-50.1C249,192.4,226.5,169.9,198.9,169.9z"/>
<path fill="currentColor" d="M369,210.1c-12.8,0-25.6-3.1-37.2-9.3c-18.9-10-32.8-26.7-39.2-47.2c-6.3-20.4-4.3-42.1,5.6-61.1
	c10-18.9,26.7-32.8,47.2-39.2c20.4-6.3,42.1-4.3,61.1,5.6c39.1,20.6,54.1,69.1,33.5,108.2l0,0c-10,18.9-26.7,32.8-47.2,39.2
	C385,208.9,377,210.1,369,210.1z M369.2,79.9c-5,0-10,0.8-14.9,2.3c-12.8,4-23.3,12.7-29.5,24.5c-6.2,11.8-7.5,25.4-3.5,38.2
	c4,12.8,12.7,23.3,24.5,29.5c24.4,12.9,54.8,3.5,67.7-21c12.9-24.4,3.5-54.8-21-67.7C385.2,81.8,377.2,79.9,369.2,79.9z"/>
<path fill="currentColor" d="M412.3,349.8c-12.6,0-25.3-3-37.2-9.2C336,320,321,271.5,341.6,232.4c10-18.9,26.7-32.8,47.2-39.2
	c20.4-6.3,42.1-4.3,61.1,5.6c39.1,20.6,54.1,69.1,33.5,108.2C469,334.3,441.1,349.8,412.3,349.8z M412.5,219.6c-5,0-10,0.8-14.9,2.3
	c-12.8,4-23.3,12.7-29.5,24.5c-6.2,11.8-7.5,25.4-3.5,38.2s12.7,23.3,24.5,29.5c24.4,12.9,54.8,3.5,67.7-21l0,0
	c12.9-24.4,3.5-54.8-21-67.7C428.5,221.6,420.5,219.6,412.5,219.6z"/>
<path fill="currentColor" d="M122.5,496.1c-17.6,0-35.2-5.7-50-17.5C38,451,32.4,400.5,60,366c27.6-34.5,78.1-40.1,112.6-12.5l0,0
	c34.5,27.6,40.1,78.1,12.5,112.6C169.3,485.9,146,496.1,122.5,496.1z M122.6,366c-14.7,0-29.3,6.4-39.2,18.8
	c-17.3,21.6-13.8,53.2,7.8,70.4c21.6,17.3,53.2,13.8,70.4-7.8c17.3-21.6,13.8-53.2-7.8-70.4l0,0C144.7,369.6,133.6,366,122.6,366z"
	/>
<path fill="currentColor" d="M267.9,480c-17.6,0-35.2-5.7-50-17.5c-34.5-27.6-40.1-78.1-12.5-112.6c13.4-16.7,32.5-27.2,53.7-29.6
	c21.3-2.4,42.2,3.7,58.9,17.1c34.5,27.6,40.1,78.1,12.5,112.6C314.7,469.8,291.4,480,267.9,480z M268.1,349.9
	c-1.9,0-3.7,0.1-5.6,0.3c-13.3,1.5-25.2,8-33.6,18.5c-17.3,21.6-13.8,53.2,7.8,70.4c21.6,17.3,53.2,13.8,70.4-7.8
	c17.3-21.6,13.8-53.2-7.8-70.4h0C290.3,353.7,279.4,349.9,268.1,349.9z"/>
</svg>
